<?xml version="1.0" encoding="UTF-8" standalone="no"?>
<!-- Created with Inkscape (http://www.inkscape.org/) -->

<svg
   xmlns:dc="http://purl.org/dc/elements/1.1/"
   xmlns:cc="http://creativecommons.org/ns#"
   xmlns:rdf="http://www.w3.org/1999/02/22-rdf-syntax-ns#"
   xmlns:svg="http://www.w3.org/2000/svg"
   xmlns="http://www.w3.org/2000/svg"
   xmlns:sodipodi="http://sodipodi.sourceforge.net/DTD/sodipodi-0.dtd"
   xmlns:inkscape="http://www.inkscape.org/namespaces/inkscape"
   id="svg2"
   version="1.1"
   inkscape:version="0.48.4 r9939"
   width="269.29126"
   height="187.795"
   xml:space="preserve"
   sodipodi:docname="acab.svg"><metadata
     id="metadata8"><rdf:RDF><cc:Work
         rdf:about=""><dc:format>image/svg+xml</dc:format><dc:type
           rdf:resource="http://purl.org/dc/dcmitype/StillImage" /><dc:title></dc:title></cc:Work></rdf:RDF></metadata><defs
     id="defs6"><clipPath
       clipPathUnits="userSpaceOnUse"
       id="clipPath16"><path
         d="m 0,150.236 215.433,0 L 215.433,0 0,0 0,150.236 z"
         id="path18"
         inkscape:connector-curvature="0" /></clipPath><clipPath
       clipPathUnits="userSpaceOnUse"
       id="clipPath24"><path
         d="m 0,150.236 215.433,0 L 215.433,0 0,0 0,150.236 z"
         id="path26"
         inkscape:connector-curvature="0" /></clipPath><clipPath
       clipPathUnits="userSpaceOnUse"
       id="clipPath28"><path
         d="M 215.433,0 0,0 l 0,150.236 215.433,0 0,-150.236 z"
         id="path30"
         inkscape:connector-curvature="0" /></clipPath><linearGradient
       x1="0"
       y1="0"
       x2="1"
       y2="0"
       gradientUnits="userSpaceOnUse"
       gradientTransform="matrix(73.485901,-201.90085,-201.90085,-73.485901,70.973633,176.06836)"
       spreadMethod="pad"
       id="linearGradient32"><stop
         style="stop-opacity:1;stop-color:#ffffff"
         offset="0"
         id="stop34" /><stop
         style="stop-opacity:1;stop-color:#353132"
         offset="0.193939"
         id="stop36" /><stop
         style="stop-opacity:1;stop-color:#827f80"
         offset="0.890915"
         id="stop38" /><stop
         style="stop-opacity:1;stop-color:#d3d2d2"
         offset="1"
         id="stop40" /></linearGradient><clipPath
       clipPathUnits="userSpaceOnUse"
       id="clipPath60"><path
         d="m 8.50195,141.732 198.42505,0 0,-133.22809 -198.42505,0 0,133.22809 z"
         id="path62"
         inkscape:connector-curvature="0" /></clipPath><clipPath
       clipPathUnits="userSpaceOnUse"
       id="clipPath76"><path
         d="m 0,150.236 215.433,0 L 215.433,0 0,0 0,150.236 z"
         id="path78"
         inkscape:connector-curvature="0" /></clipPath><clipPath
       clipPathUnits="userSpaceOnUse"
       id="clipPath84"><path
         d="m 73.3955,149.321 68.5595,0 0,-6.732 -68.5595,0 0,6.732 z"
         id="path86"
         inkscape:connector-curvature="0" /></clipPath><clipPath
       clipPathUnits="userSpaceOnUse"
       id="clipPath162"><path
         d="m 70.3799,16.0176 74.6061,0 0,-6.73147 -74.6061,0 0,6.73147 z"
         id="path164"
         inkscape:connector-curvature="0" /></clipPath><clipPath
       clipPathUnits="userSpaceOnUse"
       id="clipPath246"><path
         d="m 17.4263,14.001 41.7651,0 0,-5.76467 -41.7651,0 0,5.76467 z"
         id="path248"
         inkscape:connector-curvature="0" /></clipPath><clipPath
       clipPathUnits="userSpaceOnUse"
       id="clipPath304"><path
         d="m 197.845,112.388 6.732,0 0,-74.9427 -6.732,0 0,74.9427 z"
         id="path306"
         inkscape:connector-curvature="0" /></clipPath><clipPath
       clipPathUnits="userSpaceOnUse"
       id="clipPath388"><path
         d="m 21.4609,98.8574 153.2431,0 0,-25.0527 -153.2431,0 0,25.0527 z"
         id="path390"
         inkscape:connector-curvature="0" /></clipPath><clipPath
       clipPathUnits="userSpaceOnUse"
       id="clipPath708"><path
         d="m 21.605,66.2695 168.078,0 0,-34.5644 -168.078,0 0,34.5644 z"
         id="path710"
         inkscape:connector-curvature="0" /></clipPath><clipPath
       clipPathUnits="userSpaceOnUse"
       id="clipPath1178"><path
         d="m 53.4678,131.853 108.1052,0 0,-21.778 -108.1052,0 0,21.778 z"
         id="path1180"
         inkscape:connector-curvature="0" /></clipPath><clipPath
       clipPathUnits="userSpaceOnUse"
       id="clipPath1282"><path
         d="m 8.43115,12.5049 198.56885,0 0,-8.00197 -198.56885,0 0,8.00197 z"
         id="path1284"
         inkscape:connector-curvature="0" /></clipPath><clipPath
       clipPathUnits="userSpaceOnUse"
       id="clipPath1306"><path
         d="m 202.928,141.803 8.002,0 0,-133.37234 -8.002,0 0,133.37234 z"
         id="path1308"
         inkscape:connector-curvature="0" /></clipPath></defs><sodipodi:namedview
     pagecolor="#ffffff"
     bordercolor="#666666"
     borderopacity="1"
     objecttolerance="10"
     gridtolerance="10"
     guidetolerance="10"
     inkscape:pageopacity="0"
     inkscape:pageshadow="2"
     inkscape:window-width="1600"
     inkscape:window-height="847"
     id="namedview4"
     showgrid="false"
     units="mm"
     inkscape:zoom="2"
     inkscape:cx="216.14537"
     inkscape:cy="47.265215"
     inkscape:window-x="0"
     inkscape:window-y="31"
     inkscape:window-maximized="1"
     inkscape:current-layer="g10" /><g
     id="g10"
     inkscape:groupmode="layer"
     inkscape:label="acab"
     transform="matrix(1.25,0,0,-1.25,0,187.79498)"><path
       inkscape:connector-curvature="0"
       id="path14"
       style="fill:#000000;fill-opacity:1;fill-rule:nonzero;stroke:none"
       d="m 0.78136593,150.47974 213.52633407,0 c 0.62092,0 1.12028,-0.72622 1.12028,-1.62921 l 0,-147.6060564 c 0,-0.90197692 -0.49936,-1.62920928 -1.12028,-1.62920928 l -213.52633407,0 c -0.62021657,0 -1.12028871,0.72723236 -1.12028871,1.62920928 l 0,147.6060564 c 0,0.90299 0.50007214,1.62921 1.12028871,1.62921 z" /><path
       inkscape:connector-curvature="0"
       id="path16"
       style="fill:#00ff00;fill-opacity:1;fill-rule:nonzero;stroke:none"
       d="m 169.44429,103.86869 7.51184,0 c 0.82132,0 1.48185,-0.66128 1.48185,-1.48185 l 0,-6.258018 c 0,-0.820387 -0.66053,-1.481846 -1.48185,-1.481846 l -7.51184,0 c -0.82132,0 -1.48185,0.661459 -1.48185,1.481846 l 0,6.258018 c 0,0.82057 0.66053,1.48185 1.48185,1.48185 z" /><path
       inkscape:connector-curvature="0"
       id="path18-8"
       style="fill:#00ff00;fill-opacity:1;fill-rule:nonzero;stroke:none"
       d="m 169.44429,93.124011 7.51184,0 c 0.82132,0 1.48185,-0.660718 1.48185,-1.481845 l 0,-6.257464 c 0,-0.821127 -0.66053,-1.481845 -1.48185,-1.481845 l -7.51184,0 c -0.82132,0 -1.48185,0.660718 -1.48185,1.481845 l 0,6.257464 c 0,0.821127 0.66053,1.481845 1.48185,1.481845 z" /><path
       inkscape:connector-curvature="0"
       id="path20"
       style="fill:#00ff00;fill-opacity:1;fill-rule:nonzero;stroke:none"
       d="m 181.13697,93.124011 7.51259,0 c 0.82057,0 1.48184,-0.660718 1.48184,-1.481845 l 0,-6.257464 c 0,-0.821127 -0.66127,-1.481845 -1.48184,-1.481845 l -7.51259,0 c -0.82131,0 -1.48185,0.660718 -1.48185,1.481845 l 0,6.257464 c 0,0.821127 0.66054,1.481845 1.48185,1.481845 z" /><path
       inkscape:connector-curvature="0"
       id="path22"
       style="fill:#00ff00;fill-opacity:1;fill-rule:nonzero;stroke:none"
       d="m 169.44429,82.37989 7.51184,0 c 0.82132,0 1.48185,-0.660718 1.48185,-1.481846 l 0,-6.257463 c 0,-0.821128 -0.66053,-1.481846 -1.48185,-1.481846 l -7.51184,0 c -0.82132,0 -1.48185,0.660718 -1.48185,1.481846 l 0,6.257463 c 0,0.821128 0.66053,1.481846 1.48185,1.481846 z" /><path
       inkscape:connector-curvature="0"
       id="path24"
       style="fill:#00ff00;fill-opacity:1;fill-rule:nonzero;stroke:none"
       d="m 192.82966,82.37989 7.51259,0 c 0.82131,0 1.48185,-0.660718 1.48185,-1.481846 l 0,-6.257463 c 0,-0.821128 -0.66054,-1.481846 -1.48185,-1.481846 l -7.51259,0 c -0.82057,0 -1.48184,0.660718 -1.48184,1.481846 l 0,6.257463 c 0,0.821128 0.66127,1.481846 1.48184,1.481846 z" /><path
       inkscape:connector-curvature="0"
       id="path26-5"
       style="fill:#00ff00;fill-opacity:1;fill-rule:nonzero;stroke:none"
       d="m 169.44429,71.598907 7.51184,0 c 0.82132,0 1.48185,-0.660718 1.48185,-1.481845 l 0,-6.257464 c 0,-0.821128 -0.66053,-1.481846 -1.48185,-1.481846 l -7.51184,0 c -0.82132,0 -1.48185,0.660718 -1.48185,1.481846 l 0,6.257464 c 0,0.821127 0.66053,1.481845 1.48185,1.481845 z" /><path
       inkscape:connector-curvature="0"
       id="path28"
       style="fill:#00ff00;fill-opacity:1;fill-rule:nonzero;stroke:none"
       d="m 181.13697,71.598907 7.51259,0 c 0.82057,0 1.48184,-0.660718 1.48184,-1.481845 l 0,-6.257464 c 0,-0.821128 -0.66127,-1.481846 -1.48184,-1.481846 l -7.51259,0 c -0.82131,0 -1.48185,0.660718 -1.48185,1.481846 l 0,6.257464 c 0,0.821127 0.66054,1.481845 1.48185,1.481845 z" /><path
       inkscape:connector-curvature="0"
       id="path30-1"
       style="fill:#ff0000;fill-opacity:1;fill-rule:nonzero;stroke:none"
       d="m 63.58272,103.86869 7.512772,0 c 0.821128,0 1.481846,-0.66128 1.481846,-1.48185 l 0,-6.258018 c 0,-0.820387 -0.660718,-1.481846 -1.481846,-1.481846 l -7.512772,0 c -0.820572,0 -1.481846,0.661459 -1.481846,1.481846 l 0,6.258018 c 0,0.82057 0.661274,1.48185 1.481846,1.48185 z" /><path
       inkscape:connector-curvature="0"
       id="path32"
       style="fill:#ff0000;fill-opacity:1;fill-rule:nonzero;stroke:none"
       d="m 75.275408,103.86869 7.512772,0 c 0.821128,0 1.481846,-0.66128 1.481846,-1.48185 l 0,-6.258018 c 0,-0.820387 -0.660718,-1.481846 -1.481846,-1.481846 l -7.512772,0 c -0.820572,0 -1.481846,0.661459 -1.481846,1.481846 l 0,6.258018 c 0,0.82057 0.661274,1.48185 1.481846,1.48185 z" /><path
       inkscape:connector-curvature="0"
       id="path34"
       style="fill:#ff0000;fill-opacity:1;fill-rule:nonzero;stroke:none"
       d="m 86.968837,103.86869 7.512587,0 c 0.820572,0 1.481845,-0.66128 1.481845,-1.48185 l 0,-6.258018 c 0,-0.820387 -0.661273,-1.481846 -1.481845,-1.481846 l -7.512587,0 c -0.821313,0 -1.481846,0.661459 -1.481846,1.481846 l 0,6.258018 c 0,0.82057 0.660533,1.48185 1.481846,1.48185 z" /><path
       inkscape:connector-curvature="0"
       id="path36"
       style="fill:#ff0000;fill-opacity:1;fill-rule:nonzero;stroke:none"
       d="m 63.58272,93.124011 7.512772,0 c 0.821128,0 1.481846,-0.660718 1.481846,-1.481845 l 0,-6.257464 c 0,-0.821127 -0.660718,-1.481845 -1.481846,-1.481845 l -7.512772,0 c -0.820572,0 -1.481846,0.660718 -1.481846,1.481845 l 0,6.257464 c 0,0.821127 0.661274,1.481845 1.481846,1.481845 z" /><path
       inkscape:connector-curvature="0"
       id="path38"
       style="fill:#ff0000;fill-opacity:1;fill-rule:nonzero;stroke:none"
       d="m 86.968837,93.124011 7.512587,0 c 0.820572,0 1.481845,-0.660718 1.481845,-1.481845 l 0,-6.257464 c 0,-0.821127 -0.661273,-1.481845 -1.481845,-1.481845 l -7.512587,0 c -0.821313,0 -1.481846,0.660718 -1.481846,1.481845 l 0,6.257464 c 0,0.821127 0.660533,1.481845 1.481846,1.481845 z" /><path
       inkscape:connector-curvature="0"
       id="path40"
       style="fill:#ff0000;fill-opacity:1;fill-rule:nonzero;stroke:none"
       d="m 63.58272,82.37989 7.512772,0 c 0.821128,0 1.481846,-0.660718 1.481846,-1.481846 l 0,-6.257463 c 0,-0.821128 -0.660718,-1.481846 -1.481846,-1.481846 l -7.512772,0 c -0.820572,0 -1.481846,0.660718 -1.481846,1.481846 l 0,6.257463 c 0,0.821128 0.661274,1.481846 1.481846,1.481846 z" /><path
       inkscape:connector-curvature="0"
       id="path42"
       style="fill:#ff0000;fill-opacity:1;fill-rule:nonzero;stroke:none"
       d="m 75.275408,82.37989 7.512772,0 c 0.821128,0 1.481846,-0.660718 1.481846,-1.481846 l 0,-6.257463 c 0,-0.821128 -0.660718,-1.481846 -1.481846,-1.481846 l -7.512772,0 c -0.820572,0 -1.481846,0.660718 -1.481846,1.481846 l 0,6.257463 c 0,0.821128 0.661274,1.481846 1.481846,1.481846 z" /><path
       inkscape:connector-curvature="0"
       id="path44"
       style="fill:#ff0000;fill-opacity:1;fill-rule:nonzero;stroke:none"
       d="m 86.968837,82.37989 7.512587,0 c 0.820572,0 1.481845,-0.660718 1.481845,-1.481846 l 0,-6.257463 c 0,-0.821128 -0.661273,-1.481846 -1.481845,-1.481846 l -7.512587,0 c -0.821313,0 -1.481846,0.660718 -1.481846,1.481846 l 0,6.257463 c 0,0.821128 0.660533,1.481846 1.481846,1.481846 z" /><path
       inkscape:connector-curvature="0"
       id="path46"
       style="fill:#ff0000;fill-opacity:1;fill-rule:nonzero;stroke:none"
       d="m 63.58272,71.598907 7.512772,0 c 0.821128,0 1.481846,-0.660718 1.481846,-1.481845 l 0,-6.257464 c 0,-0.821128 -0.660718,-1.481846 -1.481846,-1.481846 l -7.512772,0 c -0.820572,0 -1.481846,0.660718 -1.481846,1.481846 l 0,6.257464 c 0,0.821127 0.661274,1.481845 1.481846,1.481845 z" /><path
       inkscape:connector-curvature="0"
       id="path48"
       style="fill:#ff0000;fill-opacity:1;fill-rule:nonzero;stroke:none"
       d="m 86.968837,71.598907 7.512587,0 c 0.820572,0 1.481845,-0.660718 1.481845,-1.481845 l 0,-6.257464 c 0,-0.821128 -0.661273,-1.481846 -1.481845,-1.481846 l -7.512587,0 c -0.821313,0 -1.481846,0.660718 -1.481846,1.481846 l 0,6.257464 c 0,0.821127 0.660533,1.481845 1.481846,1.481845 z" /><path
       inkscape:connector-curvature="0"
       id="path50"
       style="fill:#ff0000;fill-opacity:1;fill-rule:nonzero;stroke:none"
       d="m 63.58272,103.86869 7.512772,0 c 0.821128,0 1.481846,-0.66128 1.481846,-1.48185 l 0,-6.258018 c 0,-0.820387 -0.660718,-1.481846 -1.481846,-1.481846 l -7.512772,0 c -0.820572,0 -1.481846,0.661459 -1.481846,1.481846 l 0,6.258018 c 0,0.82057 0.661274,1.48185 1.481846,1.48185 z" /><path
       inkscape:connector-curvature="0"
       id="path52"
       style="fill:#ff0000;fill-opacity:1;fill-rule:nonzero;stroke:none"
       d="m 75.275408,103.86869 7.512772,0 c 0.821128,0 1.481846,-0.66128 1.481846,-1.48185 l 0,-6.258018 c 0,-0.820387 -0.660718,-1.481846 -1.481846,-1.481846 l -7.512772,0 c -0.820572,0 -1.481846,0.661459 -1.481846,1.481846 l 0,6.258018 c 0,0.82057 0.661274,1.48185 1.481846,1.48185 z" /><path
       inkscape:connector-curvature="0"
       id="path54"
       style="fill:#ff0000;fill-opacity:1;fill-rule:nonzero;stroke:none"
       d="m 86.968837,103.86869 7.512587,0 c 0.820572,0 1.481845,-0.66128 1.481845,-1.48185 l 0,-6.258018 c 0,-0.820387 -0.661273,-1.481846 -1.481845,-1.481846 l -7.512587,0 c -0.821313,0 -1.481846,0.661459 -1.481846,1.481846 l 0,6.258018 c 0,0.82057 0.660533,1.48185 1.481846,1.48185 z" /><path
       inkscape:connector-curvature="0"
       id="path56"
       style="fill:#ff0000;fill-opacity:1;fill-rule:nonzero;stroke:none"
       d="m 86.968837,93.124011 7.512587,0 c 0.820572,0 1.481845,-0.660718 1.481845,-1.481845 l 0,-6.257464 c 0,-0.821127 -0.661273,-1.481845 -1.481845,-1.481845 l -7.512587,0 c -0.821313,0 -1.481846,0.660718 -1.481846,1.481845 l 0,6.257464 c 0,0.821127 0.660533,1.481845 1.481846,1.481845 z" /><path
       inkscape:connector-curvature="0"
       id="path58"
       style="fill:#ff0000;fill-opacity:1;fill-rule:nonzero;stroke:none"
       d="m 75.275408,82.37989 7.512772,0 c 0.821128,0 1.481846,-0.660718 1.481846,-1.481846 l 0,-6.257463 c 0,-0.821128 -0.660718,-1.481846 -1.481846,-1.481846 l -7.512772,0 c -0.820572,0 -1.481846,0.660718 -1.481846,1.481846 l 0,6.257463 c 0,0.821128 0.661274,1.481846 1.481846,1.481846 z" /><path
       inkscape:connector-curvature="0"
       id="path60"
       style="fill:#ff0000;fill-opacity:1;fill-rule:nonzero;stroke:none"
       d="m 86.968837,71.598907 7.512587,0 c 0.820572,0 1.481845,-0.660718 1.481845,-1.481845 l 0,-6.257464 c 0,-0.821128 -0.661273,-1.481846 -1.481845,-1.481846 l -7.512587,0 c -0.821313,0 -1.481846,0.660718 -1.481846,1.481846 l 0,6.257464 c 0,0.821127 0.660533,1.481845 1.481846,1.481845 z" /><path
       inkscape:connector-curvature="0"
       id="path66"
       style="fill:#00ff00;fill-opacity:1;fill-rule:nonzero;stroke:none"
       d="m 192.82966,93.124011 7.51259,0 c 0.82131,0 1.48185,-0.660718 1.48185,-1.481845 l 0,-6.257464 c 0,-0.821127 -0.66054,-1.481845 -1.48185,-1.481845 l -7.51259,0 c -0.82057,0 -1.48184,0.660718 -1.48184,1.481845 l 0,6.257464 c 0,0.821127 0.66127,1.481845 1.48184,1.481845 z" /><path
       inkscape:connector-curvature="0"
       id="path68"
       style="fill:#00ff00;fill-opacity:1;fill-rule:nonzero;stroke:none"
       d="m 192.82966,71.598907 7.51259,0 c 0.82131,0 1.48185,-0.660718 1.48185,-1.481845 l 0,-6.257464 c 0,-0.821128 -0.66054,-1.481846 -1.48185,-1.481846 l -7.51259,0 c -0.82057,0 -1.48184,0.660718 -1.48184,1.481846 l 0,6.257464 c 0,0.821127 0.66127,1.481845 1.48184,1.481845 z" /><path
       inkscape:connector-curvature="0"
       id="path72"
       style="fill:#00ff00;fill-opacity:1;fill-rule:nonzero;stroke:none"
       d="m 169.44429,103.86869 7.51184,0 c 0.82132,0 1.48185,-0.66128 1.48185,-1.48185 l 0,-6.258018 c 0,-0.820387 -0.66053,-1.481846 -1.48185,-1.481846 l -7.51184,0 c -0.82132,0 -1.48185,0.661459 -1.48185,1.481846 l 0,6.258018 c 0,0.82057 0.66053,1.48185 1.48185,1.48185 z" /><path
       inkscape:connector-curvature="0"
       id="path74"
       style="fill:#00ff00;fill-opacity:1;fill-rule:nonzero;stroke:none"
       d="m 169.44429,93.124011 7.51184,0 c 0.82132,0 1.48185,-0.660718 1.48185,-1.481845 l 0,-6.257464 c 0,-0.821127 -0.66053,-1.481845 -1.48185,-1.481845 l -7.51184,0 c -0.82132,0 -1.48185,0.660718 -1.48185,1.481845 l 0,6.257464 c 0,0.821127 0.66053,1.481845 1.48185,1.481845 z" /><path
       inkscape:connector-curvature="0"
       id="path76"
       style="fill:#00ff00;fill-opacity:1;fill-rule:nonzero;stroke:none"
       d="m 181.13697,93.124011 7.51259,0 c 0.82057,0 1.48184,-0.660718 1.48184,-1.481845 l 0,-6.257464 c 0,-0.821127 -0.66127,-1.481845 -1.48184,-1.481845 l -7.51259,0 c -0.82131,0 -1.48185,0.660718 -1.48185,1.481845 l 0,6.257464 c 0,0.821127 0.66054,1.481845 1.48185,1.481845 z" /><path
       inkscape:connector-curvature="0"
       id="path80"
       style="fill:#00ff00;fill-opacity:1;fill-rule:nonzero;stroke:none"
       d="m 169.44429,82.37989 7.51184,0 c 0.82132,0 1.48185,-0.660718 1.48185,-1.481846 l 0,-6.257463 c 0,-0.821128 -0.66053,-1.481846 -1.48185,-1.481846 l -7.51184,0 c -0.82132,0 -1.48185,0.660718 -1.48185,1.481846 l 0,6.257463 c 0,0.821128 0.66053,1.481846 1.48185,1.481846 z" /><path
       inkscape:connector-curvature="0"
       id="path82"
       style="fill:#00ff00;fill-opacity:1;fill-rule:nonzero;stroke:none"
       d="m 192.82966,82.37989 7.51259,0 c 0.82131,0 1.48185,-0.660718 1.48185,-1.481846 l 0,-6.257463 c 0,-0.821128 -0.66054,-1.481846 -1.48185,-1.481846 l -7.51259,0 c -0.82057,0 -1.48184,0.660718 -1.48184,1.481846 l 0,6.257463 c 0,0.821128 0.66127,1.481846 1.48184,1.481846 z" /><path
       inkscape:connector-curvature="0"
       id="path84"
       style="fill:#00ff00;fill-opacity:1;fill-rule:nonzero;stroke:none"
       d="m 169.44429,71.598907 7.51184,0 c 0.82132,0 1.48185,-0.660718 1.48185,-1.481845 l 0,-6.257464 c 0,-0.821128 -0.66053,-1.481846 -1.48185,-1.481846 l -7.51184,0 c -0.82132,0 -1.48185,0.660718 -1.48185,1.481846 l 0,6.257464 c 0,0.821127 0.66053,1.481845 1.48185,1.481845 z" /><path
       inkscape:connector-curvature="0"
       id="path86-3"
       style="fill:#00ff00;fill-opacity:1;fill-rule:nonzero;stroke:none"
       d="m 181.13697,71.598907 7.51259,0 c 0.82057,0 1.48184,-0.660718 1.48184,-1.481845 l 0,-6.257464 c 0,-0.821128 -0.66127,-1.481846 -1.48184,-1.481846 l -7.51259,0 c -0.82131,0 -1.48185,0.660718 -1.48185,1.481846 l 0,6.257464 c 0,0.821127 0.66054,1.481845 1.48185,1.481845 z" /><path
       inkscape:connector-curvature="0"
       id="path90"
       style="fill:#ff0000;fill-opacity:1;fill-rule:nonzero;stroke:none"
       d="m 134.1571,103.86869 7.51259,0 c 0.82057,0 1.48184,-0.66128 1.48184,-1.48185 l 0,-6.258018 c 0,-0.820387 -0.66127,-1.481846 -1.48184,-1.481846 l -7.51259,0 c -0.82132,0 -1.48185,0.661459 -1.48185,1.481846 l 0,6.258018 c 0,0.82057 0.66053,1.48185 1.48185,1.48185 z" /><path
       inkscape:connector-curvature="0"
       id="path92"
       style="fill:#ff0000;fill-opacity:1;fill-rule:nonzero;stroke:none"
       d="m 145.84979,103.86869 7.51258,0 c 0.82132,0 1.48185,-0.66128 1.48185,-1.48185 l 0,-6.258018 c 0,-0.820387 -0.66053,-1.481846 -1.48185,-1.481846 l -7.51258,0 c -0.82058,0 -1.48185,0.661459 -1.48185,1.481846 l 0,6.258018 c 0,0.82057 0.66127,1.48185 1.48185,1.48185 z" /><path
       inkscape:connector-curvature="0"
       id="path94"
       style="fill:#ff0000;fill-opacity:1;fill-rule:nonzero;stroke:none"
       d="m 157.54247,103.86869 7.51259,0 c 0.82131,0 1.48185,-0.66128 1.48185,-1.48185 l 0,-6.258018 c 0,-0.820387 -0.66054,-1.481846 -1.48185,-1.481846 l -7.51259,0 c -0.82057,0 -1.48184,0.661459 -1.48184,1.481846 l 0,6.258018 c 0,0.82057 0.66127,1.48185 1.48184,1.48185 z" /><path
       inkscape:connector-curvature="0"
       id="path96"
       style="fill:#ff0000;fill-opacity:1;fill-rule:nonzero;stroke:none"
       d="m 134.1571,93.124011 7.51259,0 c 0.82057,0 1.48184,-0.660718 1.48184,-1.481845 l 0,-6.257464 c 0,-0.821127 -0.66127,-1.481845 -1.48184,-1.481845 l -7.51259,0 c -0.82132,0 -1.48185,0.660718 -1.48185,1.481845 l 0,6.257464 c 0,0.821127 0.66053,1.481845 1.48185,1.481845 z" /><path
       inkscape:connector-curvature="0"
       id="path98"
       style="fill:#ff0000;fill-opacity:1;fill-rule:nonzero;stroke:none"
       d="m 157.54247,93.124011 7.51259,0 c 0.82131,0 1.48185,-0.660718 1.48185,-1.481845 l 0,-6.257464 c 0,-0.821127 -0.66054,-1.481845 -1.48185,-1.481845 l -7.51259,0 c -0.82057,0 -1.48184,0.660718 -1.48184,1.481845 l 0,6.257464 c 0,0.821127 0.66127,1.481845 1.48184,1.481845 z" /><path
       inkscape:connector-curvature="0"
       id="path100"
       style="fill:#ff0000;fill-opacity:1;fill-rule:nonzero;stroke:none"
       d="m 134.1571,82.37989 7.51259,0 c 0.82057,0 1.48184,-0.660718 1.48184,-1.481846 l 0,-6.257463 c 0,-0.821128 -0.66127,-1.481846 -1.48184,-1.481846 l -7.51259,0 c -0.82132,0 -1.48185,0.660718 -1.48185,1.481846 l 0,6.257463 c 0,0.821128 0.66053,1.481846 1.48185,1.481846 z" /><path
       inkscape:connector-curvature="0"
       id="path102"
       style="fill:#ff0000;fill-opacity:1;fill-rule:nonzero;stroke:none"
       d="m 145.84979,82.37989 7.51258,0 c 0.82132,0 1.48185,-0.660718 1.48185,-1.481846 l 0,-6.257463 c 0,-0.821128 -0.66053,-1.481846 -1.48185,-1.481846 l -7.51258,0 c -0.82058,0 -1.48185,0.660718 -1.48185,1.481846 l 0,6.257463 c 0,0.821128 0.66127,1.481846 1.48185,1.481846 z" /><path
       inkscape:connector-curvature="0"
       id="path104"
       style="fill:#ff0000;fill-opacity:1;fill-rule:nonzero;stroke:none"
       d="m 157.54247,82.37989 7.51259,0 c 0.82131,0 1.48185,-0.660718 1.48185,-1.481846 l 0,-6.257463 c 0,-0.821128 -0.66054,-1.481846 -1.48185,-1.481846 l -7.51259,0 c -0.82057,0 -1.48184,0.660718 -1.48184,1.481846 l 0,6.257463 c 0,0.821128 0.66127,1.481846 1.48184,1.481846 z" /><path
       inkscape:connector-curvature="0"
       id="path106"
       style="fill:#ff0000;fill-opacity:1;fill-rule:nonzero;stroke:none"
       d="m 134.1571,71.598907 7.51259,0 c 0.82057,0 1.48184,-0.660718 1.48184,-1.481845 l 0,-6.257464 c 0,-0.821128 -0.66127,-1.481846 -1.48184,-1.481846 l -7.51259,0 c -0.82132,0 -1.48185,0.660718 -1.48185,1.481846 l 0,6.257464 c 0,0.821127 0.66053,1.481845 1.48185,1.481845 z" /><path
       inkscape:connector-curvature="0"
       id="path108"
       style="fill:#ff0000;fill-opacity:1;fill-rule:nonzero;stroke:none"
       d="m 157.54247,71.598907 7.51259,0 c 0.82131,0 1.48185,-0.660718 1.48185,-1.481845 l 0,-6.257464 c 0,-0.821128 -0.66054,-1.481846 -1.48185,-1.481846 l -7.51259,0 c -0.82057,0 -1.48184,0.660718 -1.48184,1.481846 l 0,6.257464 c 0,0.821127 0.66127,1.481845 1.48184,1.481845 z" /><path
       inkscape:connector-curvature="0"
       id="path110"
       style="fill:#ff0000;fill-opacity:1;fill-rule:nonzero;stroke:none"
       d="m 134.1571,103.86869 7.51259,0 c 0.82057,0 1.48184,-0.66128 1.48184,-1.48185 l 0,-6.258018 c 0,-0.820387 -0.66127,-1.481846 -1.48184,-1.481846 l -7.51259,0 c -0.82132,0 -1.48185,0.661459 -1.48185,1.481846 l 0,6.258018 c 0,0.82057 0.66053,1.48185 1.48185,1.48185 z" /><path
       inkscape:connector-curvature="0"
       id="path112"
       style="fill:#ff0000;fill-opacity:1;fill-rule:nonzero;stroke:none"
       d="m 157.54247,103.86869 7.51259,0 c 0.82131,0 1.48185,-0.66128 1.48185,-1.48185 l 0,-6.258018 c 0,-0.820387 -0.66054,-1.481846 -1.48185,-1.481846 l -7.51259,0 c -0.82057,0 -1.48184,0.661459 -1.48184,1.481846 l 0,6.258018 c 0,0.82057 0.66127,1.48185 1.48184,1.48185 z" /><path
       inkscape:connector-curvature="0"
       id="path114"
       style="fill:#ff0000;fill-opacity:1;fill-rule:nonzero;stroke:none"
       d="m 134.1571,93.124011 7.51259,0 c 0.82057,0 1.48184,-0.660718 1.48184,-1.481845 l 0,-6.257464 c 0,-0.821127 -0.66127,-1.481845 -1.48184,-1.481845 l -7.51259,0 c -0.82132,0 -1.48185,0.660718 -1.48185,1.481845 l 0,6.257464 c 0,0.821127 0.66053,1.481845 1.48185,1.481845 z" /><path
       inkscape:connector-curvature="0"
       id="path116"
       style="fill:#ff0000;fill-opacity:1;fill-rule:nonzero;stroke:none"
       d="m 134.1571,82.37989 7.51259,0 c 0.82057,0 1.48184,-0.660718 1.48184,-1.481846 l 0,-6.257463 c 0,-0.821128 -0.66127,-1.481846 -1.48184,-1.481846 l -7.51259,0 c -0.82132,0 -1.48185,0.660718 -1.48185,1.481846 l 0,6.257463 c 0,0.821128 0.66053,1.481846 1.48185,1.481846 z" /><path
       inkscape:connector-curvature="0"
       id="path118"
       style="fill:#ff0000;fill-opacity:1;fill-rule:nonzero;stroke:none"
       d="m 145.84979,103.86869 7.51258,0 c 0.82132,0 1.48185,-0.66128 1.48185,-1.48185 l 0,-6.258018 c 0,-0.820387 -0.66053,-1.481846 -1.48185,-1.481846 l -7.51258,0 c -0.82058,0 -1.48185,0.661459 -1.48185,1.481846 l 0,6.258018 c 0,0.82057 0.66127,1.48185 1.48185,1.48185 z" /><path
       inkscape:connector-curvature="0"
       id="path120"
       style="fill:#ff0000;fill-opacity:1;fill-rule:nonzero;stroke:none"
       d="m 145.84979,82.37989 7.51258,0 c 0.82132,0 1.48185,-0.660718 1.48185,-1.481846 l 0,-6.257463 c 0,-0.821128 -0.66053,-1.481846 -1.48185,-1.481846 l -7.51258,0 c -0.82058,0 -1.48185,0.660718 -1.48185,1.481846 l 0,6.257463 c 0,0.821128 0.66127,1.481846 1.48185,1.481846 z" /><path
       inkscape:connector-curvature="0"
       id="path122"
       style="fill:#ff0000;fill-opacity:1;fill-rule:nonzero;stroke:none"
       d="m 157.54247,82.37989 7.51259,0 c 0.82131,0 1.48185,-0.660718 1.48185,-1.481846 l 0,-6.257463 c 0,-0.821128 -0.66054,-1.481846 -1.48185,-1.481846 l -7.51259,0 c -0.82057,0 -1.48184,0.660718 -1.48184,1.481846 l 0,6.257463 c 0,0.821128 0.66127,1.481846 1.48184,1.481846 z" /><path
       inkscape:connector-curvature="0"
       id="path124"
       style="fill:#ff0000;fill-opacity:1;fill-rule:nonzero;stroke:none"
       d="m 134.1571,71.598907 7.51259,0 c 0.82057,0 1.48184,-0.660718 1.48184,-1.481845 l 0,-6.257464 c 0,-0.821128 -0.66127,-1.481846 -1.48184,-1.481846 l -7.51259,0 c -0.82132,0 -1.48185,0.660718 -1.48185,1.481846 l 0,6.257464 c 0,0.821127 0.66053,1.481845 1.48185,1.481845 z" /><path
       inkscape:connector-curvature="0"
       id="path126"
       style="fill:#ff0000;fill-opacity:1;fill-rule:nonzero;stroke:none"
       d="m 157.54247,71.598907 7.51259,0 c 0.82131,0 1.48185,-0.660718 1.48185,-1.481845 l 0,-6.257464 c 0,-0.821128 -0.66054,-1.481846 -1.48185,-1.481846 l -7.51259,0 c -0.82057,0 -1.48184,0.660718 -1.48184,1.481846 l 0,6.257464 c 0,0.821127 0.66127,1.481845 1.48184,1.481845 z" /><path
       inkscape:connector-curvature="0"
       id="path128"
       style="fill:#ff0000;fill-opacity:1;fill-rule:nonzero;stroke:none"
       d="m 157.54247,93.124011 7.51259,0 c 0.82131,0 1.48185,-0.660718 1.48185,-1.481845 l 0,-6.257464 c 0,-0.821127 -0.66054,-1.481845 -1.48185,-1.481845 l -7.51259,0 c -0.82057,0 -1.48184,0.660718 -1.48184,1.481845 l 0,6.257464 c 0,0.821127 0.66127,1.481845 1.48184,1.481845 z" /><path
       inkscape:connector-curvature="0"
       id="path182"
       style="fill:#00ff00;fill-opacity:1;fill-rule:nonzero;stroke:none"
       d="m 145.95185,50.069357 0,1.429796 -0.0117,1.250307 c -0.009,0.946344 -0.67146,1.580203 -1.70468,1.580203 -0.48327,0 -0.85965,-0.121511 -1.12583,-0.358792 -0.30396,-0.266362 -0.42548,-0.503642 -0.42548,-0.578846 0,-0.0376 0.0174,-0.05501 0.055,-0.07539 l 0.57884,-0.303778 c 0.0174,-0.0087 0.0376,-0.01741 0.0578,-0.01741 0.055,0 0.14188,0.150593 0.35027,0.379168 0.1128,0.121511 0.301,0.208384 0.50938,0.208384 0.49197,0 0.83354,-0.350271 0.85373,-0.833538 l 0.009,-0.266362 c 0,-0.0665 -0.0289,-0.09539 -0.0954,-0.09539 l -1.08823,0 c -0.74685,0 -1.25901,-0.491972 -1.25901,-1.172139 l 0,-0.05798 c 0,-0.682945 0.51216,-1.183624 1.25901,-1.183624 l 0.37046,0 c 0.434,0 0.70036,0.32119 0.84206,0.32119 0.0378,0 0.0667,-0.0376 0.0667,-0.104285 l 0,-0.121511 c 0,-0.0665 0.0289,-0.09539 0.0926,-0.09539 l 0.57014,0 c 0.0665,0 0.0956,0.0289 0.0956,0.09539 z m -0.85391,1.525375 -0.009,-0.182452 c -0.16208,-0.442702 -0.44567,-0.680168 -0.80446,-0.680168 l -0.37046,0 c -0.23746,0 -0.41677,0.179489 -0.41677,0.425475 l 0,0.150593 c 0,0.23728 0.17931,0.416769 0.41677,0.416769 l 1.08823,0 c 0.0578,0 0.0954,-0.0376 0.0954,-0.09262 l 0,-0.0376 z m 5.16552,-0.674425 -0.59625,0.303963 c -0.0174,0.0085 -0.0376,0.01723 -0.055,0.01723 -0.0578,0 -0.1417,-0.150407 -0.35008,-0.396394 -0.10429,-0.124475 -0.29526,-0.208384 -0.52106,-0.208384 -0.48326,0 -0.85373,0.387687 -0.85373,0.853728 l 0,1.230117 c 0,0.463077 0.37047,0.850765 0.85373,0.850765 0.38788,0 0.55866,-0.216906 0.78427,-0.529575 0.0291,-0.0376 0.0378,-0.05779 0.0754,-0.05779 0.0115,0 0.0289,0 0.0491,0.01148 l 0.60497,0.301 c 0.0376,0.02019 0.0578,0.04057 0.0578,0.07817 0,0.196715 -0.26618,0.567176 -0.76686,0.792972 -0.23728,0.104285 -0.50364,0.162077 -0.80464,0.162077 -1.03321,0 -1.70468,-0.642565 -1.70468,-1.609099 l 0,-1.230117 c 0,-0.966719 0.67147,-1.612063 1.70468,-1.612063 0.50068,0 0.89726,0.133181 1.18381,0.399358 0.28359,0.263398 0.3964,0.509384 0.3964,0.576067 0,0.0289 -0.0202,0.04909 -0.0578,0.0665 z m 4.23271,-0.85095 0,1.429796 -0.0115,1.250307 c -0.009,0.946344 -0.67147,1.580203 -1.70468,1.580203 -0.48345,0 -0.85966,-0.121511 -1.12583,-0.358792 -0.30397,-0.266362 -0.42548,-0.503642 -0.42548,-0.578846 0,-0.0376 0.0174,-0.05501 0.055,-0.07539 l 0.57885,-0.303778 c 0.0172,-0.0087 0.0376,-0.01741 0.0578,-0.01741 0.055,0 0.14189,0.150593 0.35027,0.379168 0.11281,0.121511 0.301,0.208384 0.50939,0.208384 0.49197,0 0.83354,-0.350271 0.85373,-0.833538 l 0.009,-0.266362 c 0,-0.0665 -0.0289,-0.09539 -0.0956,-0.09539 l -1.08823,0 c -0.74666,0 -1.25883,-0.491972 -1.25883,-1.172139 l 0,-0.05798 c 0,-0.682945 0.51217,-1.183624 1.25883,-1.183624 l 0.37046,0 c 0.43418,0 0.70055,0.32119 0.84225,0.32119 0.0376,0 0.0667,-0.0376 0.0667,-0.104285 l 0,-0.121511 c 0,-0.0665 0.0289,-0.09539 0.0926,-0.09539 l 0.57014,0 c 0.0665,0 0.0954,0.0289 0.0954,0.09539 z m -0.85373,1.525375 -0.009,-0.182452 c -0.16208,-0.442702 -0.44567,-0.680168 -0.80465,-0.680168 l -0.37046,0 c -0.23728,0 -0.41677,0.179489 -0.41677,0.425475 l 0,0.150593 c 0,0.23728 0.17949,0.416769 0.41677,0.416769 l 1.08823,0 c 0.058,0 0.0956,-0.0376 0.0956,-0.09262 l 0,-0.0376 z m 5.48968,-0.01167 0,1.041923 c 0,0.929117 -0.69183,1.609284 -1.57446,1.609284 -0.54698,0 -0.82205,-0.321375 -0.90874,-0.321375 -0.0463,0 -0.0754,0.04927 -0.0754,0.112991 l 0,1.820447 c 0,0.0665 -0.0289,0.09262 -0.0954,0.09262 l -0.66276,0 c -0.0667,0 -0.0926,-0.02612 -0.0926,-0.09262 l 0,-5.776975 c 0,-0.0665 0.0259,-0.09539 0.0926,-0.09539 l 0.57014,0 c 0.0665,0 0.0926,0.0289 0.0926,0.09539 l 0,0.112991 c 0,0.0665 0.0289,0.104099 0.0665,0.104099 0.12447,0 0.37916,-0.312484 0.93782,-0.312484 0.95783,0 1.64966,0.65405 1.64966,1.609099 z m -0.85391,0 c 0,-0.463076 -0.3675,-0.85095 -0.85076,-0.85095 -0.47475,0 -0.85392,0.387874 -0.85392,0.85095 l 0,1.041923 c 0,0.463077 0.37917,0.853728 0.85392,0.853728 0.48326,0 0.85076,-0.390651 0.85076,-0.853728 l 0,-1.041923 z m 2.8857,-1.183809 c 0,0.295258 -0.22875,0.521054 -0.52104,0.521054 -0.29526,0 -0.52087,-0.225796 -0.52087,-0.521054 0,-0.301 0.2169,-0.520869 0.52087,-0.520869 0.30396,0 0.52104,0.228575 0.52104,0.520869 z m 6.72906,-0.329896 0,2.555628 c 0,0.937823 -0.67145,1.609284 -1.60928,1.609284 -0.33285,0 -0.59625,-0.06668 -0.81316,-0.208384 -0.22006,-0.141887 -0.31267,-0.263398 -0.36194,-0.263398 -0.0376,0 -0.1417,0.112805 -0.35009,0.254692 -0.21709,0.150407 -0.45436,0.21709 -0.74666,0.21709 -0.45455,0 -0.74963,-0.321375 -0.88281,-0.321375 -0.0376,0 -0.0665,0.0376 -0.0665,0.104285 l 0,0.124475 c 0,0.0665 -0.0261,0.09261 -0.0926,0.09261 l -0.57032,0 c -0.0665,0 -0.0926,-0.02612 -0.0926,-0.09261 l 0,-4.072297 c 0,-0.0665 0.0261,-0.09539 0.0926,-0.09539 l 0.66294,0 c 0.0665,0 0.0954,0.0289 0.0954,0.09539 l 0,2.555628 c 0,0.454371 0.37916,0.853728 0.75833,0.853728 0.38788,0 0.75834,-0.390651 0.75834,-0.853728 l 0,-2.555628 c 0,-0.0665 0.0259,-0.09539 0.0926,-0.09539 l 0.66276,0 c 0.0665,0 0.0954,0.0289 0.0954,0.09539 l 0,2.555628 c 0,0.445665 0.37918,0.853728 0.75835,0.853728 0.38788,0 0.75834,-0.390651 0.75834,-0.853728 l 0,-2.555628 c 0,-0.0665 0.0261,-0.09539 0.0926,-0.09539 l 0.66276,0 c 0.0665,0 0.0956,0.0289 0.0956,0.09539 z m 4.5526,0 0,4.072297 c 0,0.0665 -0.0289,0.09261 -0.0956,0.09261 l -0.66275,0 c -0.0665,0 -0.0956,-0.02612 -0.0956,-0.09261 l 0,-2.558592 c 0,-0.463076 -0.3675,-0.85095 -0.85076,-0.85095 -0.48345,0 -0.85391,0.387874 -0.85391,0.85095 l 0,2.558592 c 0,0.0665 -0.0259,0.09261 -0.0926,0.09261 l -0.66275,0 c -0.0665,0 -0.0954,-0.02612 -0.0954,-0.09261 l 0,-2.558592 c 0,-0.955049 0.69165,-1.609099 1.63799,-1.609099 0.54994,0 0.82482,0.312484 0.94653,0.312484 0.0376,0 0.0665,-0.0376 0.0665,-0.104099 l 0,-0.112991 c 0,-0.0665 0.0289,-0.09539 0.0956,-0.09539 l 0.56719,0 c 0.0667,0 0.0956,0.0289 0.0956,0.09539 z m 4.32107,0.85095 -0.59626,0.303963 c -0.0174,0.0085 -0.0376,0.01723 -0.055,0.01723 -0.0578,0 -0.14169,-0.150407 -0.35008,-0.396394 -0.10428,-0.124475 -0.29526,-0.208384 -0.52105,-0.208384 -0.48327,0 -0.85373,0.387687 -0.85373,0.853728 l 0,1.230117 c 0,0.463077 0.37046,0.850765 0.85373,0.850765 0.38787,0 0.55866,-0.216906 0.78445,-0.529575 0.0289,-0.0376 0.0376,-0.05779 0.0752,-0.05779 0.0114,0 0.0289,0 0.0491,0.01148 l 0.60497,0.301 c 0.0376,0.02019 0.058,0.04057 0.058,0.07817 0,0.196715 -0.26637,0.567176 -0.76704,0.792972 -0.23728,0.104285 -0.50365,0.162077 -0.80464,0.162077 -1.03322,0 -1.70468,-0.642565 -1.70468,-1.609099 l 0,-1.230117 c 0,-0.966719 0.67146,-1.612063 1.70468,-1.612063 0.50067,0 0.89726,0.133181 1.1838,0.399358 0.2836,0.263398 0.3964,0.509384 0.3964,0.576067 0,0.0289 -0.0202,0.04909 -0.0578,0.0665 z m 1.91158,-0.521054 c 0,0.295258 -0.22858,0.521054 -0.52087,0.521054 -0.29526,0 -0.52105,-0.225796 -0.52105,-0.521054 0,-0.301 0.21709,-0.520869 0.52105,-0.520869 0.30378,0 0.52087,0.228575 0.52087,0.520869 z m 4.22918,0.521054 -0.59625,0.303963 c -0.0172,0.0085 -0.0376,0.01723 -0.0548,0.01723 -0.058,0 -0.14188,-0.150407 -0.35027,-0.396394 -0.10428,-0.124475 -0.29526,-0.208384 -0.52105,-0.208384 -0.48327,0 -0.85374,0.387687 -0.85374,0.853728 l 0,1.230117 c 0,0.463077 0.37047,0.850765 0.85374,0.850765 0.38787,0 0.55866,-0.216906 0.78444,-0.529575 0.0289,-0.0376 0.0376,-0.05779 0.0752,-0.05779 0.0117,0 0.0289,0 0.0493,0.01148 l 0.60478,0.301 c 0.0378,0.02019 0.058,0.04057 0.058,0.07817 0,0.196715 -0.26636,0.567176 -0.76703,0.792972 -0.23729,0.104285 -0.50346,0.162077 -0.80464,0.162077 -1.03322,0 -1.70469,-0.642565 -1.70469,-1.609099 l 0,-1.230117 c 0,-0.966719 0.67147,-1.612063 1.70469,-1.612063 0.50086,0 0.89726,0.133181 1.1838,0.399358 0.2836,0.263398 0.39659,0.509384 0.39659,0.576067 0,0.0289 -0.0204,0.04909 -0.058,0.0665 z m 4.04989,0 -0.59625,0.303963 c -0.0174,0.0085 -0.0376,0.01723 -0.055,0.01723 -0.058,0 -0.14189,-0.150407 -0.35027,-0.396394 -0.1041,-0.124475 -0.29508,-0.208384 -0.52087,-0.208384 -0.48345,0 -0.85391,0.387687 -0.85391,0.853728 l 0,1.230117 c 0,0.463077 0.37046,0.850765 0.85391,0.850765 0.38788,0 0.55847,-0.216906 0.78427,-0.529575 0.0289,-0.0376 0.0376,-0.05779 0.0752,-0.05779 0.0117,0 0.0291,0 0.0493,0.01148 l 0.60496,0.301 c 0.0376,0.02019 0.0578,0.04057 0.0578,0.07817 0,0.196715 -0.26618,0.567176 -0.76685,0.792972 -0.23747,0.104285 -0.50365,0.162077 -0.80465,0.162077 -1.03321,0 -1.70468,-0.642565 -1.70468,-1.609099 l 0,-1.230117 c 0,-0.966719 0.67147,-1.612063 1.70468,-1.612063 0.50067,0 0.89726,0.133181 1.18363,0.399358 0.28377,0.263398 0.39657,0.509384 0.39657,0.576067 0,0.0289 -0.0202,0.04909 -0.0578,0.0665 z m 4.05044,0 -0.59626,0.303963 c -0.0174,0.0085 -0.0376,0.01723 -0.055,0.01723 -0.0578,0 -0.14188,-0.150407 -0.35028,-0.396394 -0.10409,-0.124475 -0.29506,-0.208384 -0.52086,-0.208384 -0.48326,0 -0.85372,0.387687 -0.85372,0.853728 l 0,1.230117 c 0,0.463077 0.37046,0.850765 0.85372,0.850765 0.38787,0 0.55865,-0.216906 0.78426,-0.529575 0.0291,-0.0376 0.0376,-0.05779 0.0754,-0.05779 0.0116,0 0.0289,0 0.0491,0.01148 l 0.60496,0.301 c 0.0376,0.02019 0.0578,0.04057 0.0578,0.07817 0,0.196715 -0.26617,0.567176 -0.76685,0.792972 -0.23747,0.104285 -0.50364,0.162077 -0.80464,0.162077 -1.03322,0 -1.70467,-0.642565 -1.70467,-1.609099 l 0,-1.230117 c 0,-0.966719 0.67145,-1.612063 1.70467,-1.612063 0.50068,0 0.89725,0.133181 1.18381,0.399358 0.28358,0.263398 0.3964,0.509384 0.3964,0.576067 0,0.0289 -0.0202,0.04909 -0.0578,0.0665 z m 1.91159,-0.521054 c 0,0.295258 -0.22858,0.521054 -0.52087,0.521054 -0.29526,0 -0.52106,-0.225796 -0.52106,-0.521054 0,-0.301 0.21709,-0.520869 0.52106,-0.520869 0.30377,0 0.52087,0.228575 0.52087,0.520869 z m 4.41145,-0.329896 0,5.776975 c 0,0.0665 -0.0404,0.09262 -0.0954,0.09262 l -0.66276,0 c -0.0667,0 -0.0956,-0.02612 -0.0956,-0.09262 l 0,-1.820447 c 0,-0.06372 -0.0289,-0.104285 -0.0665,-0.104285 -0.13318,0 -0.40805,0.312669 -0.87984,0.312669 -0.93782,0 -1.60929,-0.680167 -1.60929,-1.609284 l 0,-1.041923 c 0,-0.955049 0.68017,-1.609099 1.63818,-1.609099 0.54698,0 0.82186,0.312484 0.94635,0.312484 0.0376,0 0.0667,-0.0376 0.0667,-0.104099 l 0,-0.112991 c 0,-0.0665 0.0289,-0.09539 0.0926,-0.09539 l 0.57013,0 c 0.0665,0 0.0954,0.0289 0.0954,0.09539 z m -0.85374,1.513705 c 0,-0.463076 -0.37916,-0.85095 -0.85095,-0.85095 -0.48326,0 -0.85372,0.387874 -0.85372,0.85095 l 0,1.041923 c 0,0.463077 0.37046,0.853728 0.85372,0.853728 0.47179,0 0.85095,-0.390651 0.85095,-0.853728 l 0,-1.041923 z m 5.34781,0.474747 0,0.662755 c 0,0.862434 -0.75834,1.609099 -1.70468,1.609099 -0.94931,0 -1.70468,-0.746665 -1.70468,-1.609099 l 0,-1.230117 c 0,-0.966719 0.67146,-1.612063 1.70468,-1.612063 0.50068,0 0.89726,0.133181 1.18381,0.399358 0.28359,0.263398 0.39639,0.509384 0.39639,0.576067 0,0.0289 -0.0202,0.04909 -0.0578,0.0665 l -0.59626,0.303963 c -0.0174,0.0085 -0.0376,0.01723 -0.055,0.01723 -0.0578,0 -0.1417,-0.150407 -0.35009,-0.396394 -0.10428,-0.124475 -0.29525,-0.208384 -0.52105,-0.208384 -0.48327,0 -0.85373,0.387687 -0.85373,0.853728 l 0,0.376203 c 0,0.06668 0.0289,0.09558 0.0954,0.09558 l 2.36762,0 c 0.0665,0 0.0954,0.0289 0.0954,0.09558 z m -0.94931,0.567176 -1.51371,0 c -0.0867,0 -0.0954,0.0376 -0.0954,0.141887 0,0.416769 0.39936,0.804457 0.85373,0.804457 0.44289,0 0.85095,-0.378982 0.85095,-0.784267 0,-0.112806 -0.009,-0.162077 -0.0956,-0.162077 z" /><path
       inkscape:connector-curvature="0"
       id="path184"
       style="fill:#0000ff;fill-opacity:1;fill-rule:nonzero;stroke:none"
       d="m 98.869908,103.86869 7.512592,0 c 0.82057,0 1.48184,-0.66128 1.48184,-1.48185 l 0,-6.258018 c 0,-0.820387 -0.66127,-1.481846 -1.48184,-1.481846 l -7.512592,0 c -0.821313,0 -1.481844,0.661459 -1.481844,1.481846 l 0,6.258018 c 0,0.82057 0.660531,1.48185 1.481844,1.48185 z" /><path
       inkscape:connector-curvature="0"
       id="path186"
       style="fill:#0000ff;fill-opacity:1;fill-rule:nonzero;stroke:none"
       d="m 110.5626,103.86869 7.51258,0 c 0.82132,0 1.48185,-0.66128 1.48185,-1.48185 l 0,-6.258018 c 0,-0.820387 -0.66053,-1.481846 -1.48185,-1.481846 l -7.51258,0 c -0.82058,0 -1.48185,0.661459 -1.48185,1.481846 l 0,6.258018 c 0,0.82057 0.66127,1.48185 1.48185,1.48185 z" /><path
       inkscape:connector-curvature="0"
       id="path188"
       style="fill:#0000ff;fill-opacity:1;fill-rule:nonzero;stroke:none"
       d="m 98.869908,93.124011 7.512592,0 c 0.82057,0 1.48184,-0.660718 1.48184,-1.481845 l 0,-6.257464 c 0,-0.821127 -0.66127,-1.481845 -1.48184,-1.481845 l -7.512592,0 c -0.821313,0 -1.481844,0.660718 -1.481844,1.481845 l 0,6.257464 c 0,0.821127 0.660531,1.481845 1.481844,1.481845 z" /><path
       inkscape:connector-curvature="0"
       id="path190"
       style="fill:#0000ff;fill-opacity:1;fill-rule:nonzero;stroke:none"
       d="m 98.869908,82.37989 7.512592,0 c 0.82057,0 1.48184,-0.660718 1.48184,-1.481846 l 0,-6.257463 c 0,-0.821128 -0.66127,-1.481846 -1.48184,-1.481846 l -7.512592,0 c -0.821313,0 -1.481844,0.660718 -1.481844,1.481846 l 0,6.257463 c 0,0.821128 0.660531,1.481846 1.481844,1.481846 z" /><path
       inkscape:connector-curvature="0"
       id="path192"
       style="fill:#0000ff;fill-opacity:1;fill-rule:nonzero;stroke:none"
       d="m 98.869908,71.598907 7.512592,0 c 0.82057,0 1.48184,-0.660718 1.48184,-1.481845 l 0,-6.257464 c 0,-0.821128 -0.66127,-1.481846 -1.48184,-1.481846 l -7.512592,0 c -0.821313,0 -1.481844,0.660718 -1.481844,1.481846 l 0,6.257464 c 0,0.821127 0.660531,1.481845 1.481844,1.481845 z" /><path
       inkscape:connector-curvature="0"
       id="path194"
       style="fill:#0000ff;fill-opacity:1;fill-rule:nonzero;stroke:none"
       d="m 110.5626,71.598907 7.51258,0 c 0.82132,0 1.48185,-0.660718 1.48185,-1.481845 l 0,-6.257464 c 0,-0.821128 -0.66053,-1.481846 -1.48185,-1.481846 l -7.51258,0 c -0.82058,0 -1.48185,0.660718 -1.48185,1.481846 l 0,6.257464 c 0,0.821127 0.66127,1.481845 1.48185,1.481845 z" /><path
       inkscape:connector-curvature="0"
       id="path196"
       style="fill:#0000ff;fill-opacity:1;fill-rule:nonzero;stroke:none"
       d="m 122.25603,71.598907 7.51184,0 c 0.82131,0 1.48185,-0.660718 1.48185,-1.481845 l 0,-6.257464 c 0,-0.821128 -0.66054,-1.481846 -1.48185,-1.481846 l -7.51184,0 c -0.82132,0 -1.48185,0.660718 -1.48185,1.481846 l 0,6.257464 c 0,0.821127 0.66053,1.481845 1.48185,1.481845 z" /><path
       inkscape:connector-curvature="0"
       id="path198"
       style="fill:#0000ff;fill-opacity:1;fill-rule:nonzero;stroke:none"
       d="m 122.25603,103.86869 7.51184,0 c 0.82131,0 1.48185,-0.66128 1.48185,-1.48185 l 0,-6.258018 c 0,-0.820387 -0.66054,-1.481846 -1.48185,-1.481846 l -7.51184,0 c -0.82132,0 -1.48185,0.661459 -1.48185,1.481846 l 0,6.258018 c 0,0.82057 0.66053,1.48185 1.48185,1.48185 z" /><path
       inkscape:connector-curvature="0"
       id="path200"
       style="fill:#0000ff;fill-opacity:1;fill-rule:nonzero;stroke:none"
       d="m 98.869908,103.86869 7.512592,0 c 0.82057,0 1.48184,-0.66128 1.48184,-1.48185 l 0,-6.258018 c 0,-0.820387 -0.66127,-1.481846 -1.48184,-1.481846 l -7.512592,0 c -0.821313,0 -1.481844,0.661459 -1.481844,1.481846 l 0,6.258018 c 0,0.82057 0.660531,1.48185 1.481844,1.48185 z" /><path
       inkscape:connector-curvature="0"
       id="path202"
       style="fill:#0000ff;fill-opacity:1;fill-rule:nonzero;stroke:none"
       d="m 98.869908,93.124011 7.512592,0 c 0.82057,0 1.48184,-0.660718 1.48184,-1.481845 l 0,-6.257464 c 0,-0.821127 -0.66127,-1.481845 -1.48184,-1.481845 l -7.512592,0 c -0.821313,0 -1.481844,0.660718 -1.481844,1.481845 l 0,6.257464 c 0,0.821127 0.660531,1.481845 1.481844,1.481845 z" /><path
       inkscape:connector-curvature="0"
       id="path204"
       style="fill:#0000ff;fill-opacity:1;fill-rule:nonzero;stroke:none"
       d="m 110.5626,71.598907 7.51258,0 c 0.82132,0 1.48185,-0.660718 1.48185,-1.481845 l 0,-6.257464 c 0,-0.821128 -0.66053,-1.481846 -1.48185,-1.481846 l -7.51258,0 c -0.82058,0 -1.48185,0.660718 -1.48185,1.481846 l 0,6.257464 c 0,0.821127 0.66127,1.481845 1.48185,1.481845 z" /><path
       inkscape:connector-curvature="0"
       id="path214"
       style="fill:#ff0000;fill-opacity:1;fill-rule:nonzero;stroke:none"
       d="m 54.427507,94.800347 0,2.211284 -0.01445,1.936217 c -0.01445,1.467402 -1.041922,2.448562 -2.639537,2.448562 -0.746665,0 -1.334217,-0.19097 -1.745244,-0.55865 -0.468819,-0.40807 -0.659791,-0.77556 -0.659791,-0.894297 0,-0.05779 0.0289,-0.08687 0.08965,-0.115769 l 0.894294,-0.468819 c 0.0289,-0.01445 0.05798,-0.0289 0.08687,-0.0289 0.08687,0 0.219869,0.234317 0.541244,0.584588 0.176525,0.190973 0.468819,0.324153 0.792973,0.324153 0.761113,0 1.290873,-0.544207 1.319769,-1.290872 l 0.01445,-0.411027 c 0,-0.101321 -0.04334,-0.144665 -0.147629,-0.144665 l -1.684303,0 c -1.157692,0 -1.95085,-0.764077 -1.95085,-1.817484 l 0,-0.08984 c 0,-1.05637 0.793158,-1.831931 1.95085,-1.831931 l 0.57014,0 c 0.67424,0 1.085267,0.497715 1.305321,0.497715 0.05779,0 0.101136,-0.05779 0.101136,-0.162077 l 0,-0.188195 c 0,-0.104099 0.04631,-0.147443 0.147629,-0.147443 l 0.879846,0 c 0.101321,0 0.147628,0.04334 0.147628,0.147443 z m -1.319768,2.358913 -0.01445,-0.277846 c -0.24895,-0.688873 -0.688873,-1.05637 -1.247344,-1.05637 l -0.57014,0 c -0.367683,0 -0.645529,0.277846 -0.645529,0.659791 l 0,0.234502 c 0,0.367498 0.277846,0.645344 0.645529,0.645344 l 1.684303,0 c 0.08984,0 0.147629,-0.05779 0.147629,-0.147629 l 0,-0.05779 z m 4.537411,-2.358913 0,8.940343 c 0,0.10429 -0.04334,0.14763 -0.147629,0.14763 l -1.024511,0 c -0.1041,0 -0.147629,-0.0433 -0.147629,-0.14763 l 0,-8.940343 c 0,-0.104099 0.04353,-0.147443 0.147629,-0.147443 l 1.024511,0 c 0.104285,0 0.147629,0.04334 0.147629,0.147443 z m 3.235795,0 0,8.940343 c 0,0.10429 -0.04334,0.14763 -0.147629,0.14763 l -1.024511,0 c -0.104285,0 -0.147629,-0.0433 -0.147629,-0.14763 l 0,-8.940343 c 0,-0.104099 0.04334,-0.147443 0.147629,-0.147443 l 1.024511,0 c 0.104285,0 0.147629,0.04334 0.147629,0.147443 z" /><path
       inkscape:connector-curvature="0"
       id="path216"
       style="fill:#0000ff;fill-opacity:1;fill-rule:nonzero;stroke:none"
       d="m 26.428035,85.387666 -0.917448,0.46604 c -0.0289,0.01445 -0.05798,0.0289 -0.08687,0.0289 -0.08687,0 -0.219869,-0.234502 -0.53828,-0.613669 -0.162077,-0.188009 -0.454371,-0.318226 -0.801679,-0.318226 -0.743886,0 -1.314027,0.596072 -1.314027,1.311063 l 0,1.895651 c 0,0.71499 0.570141,1.311062 1.314027,1.311062 0.596072,0 0.859471,-0.335638 1.209742,-0.816126 0.04334,-0.05779 0.05798,-0.08687 0.115769,-0.08687 0.01445,0 0.04334,0 0.07243,0.01445 l 0.931896,0.46604 c 0.06076,0.0289 0.08965,0.05798 0.08965,0.115769 0,0.306742 -0.408063,0.876883 -1.180845,1.22419 -0.364719,0.162077 -0.772783,0.24895 -1.238638,0.24895 -1.591873,0 -2.625089,-0.989873 -2.625089,-2.47746 l 0,-1.895651 c 0,-1.487588 1.033216,-2.477461 2.625089,-2.477461 0.769819,0 1.383303,0.202642 1.820447,0.610706 0.43696,0.408063 0.613484,0.78723 0.613484,0.888551 0,0.04631 -0.0289,0.0752 -0.08965,0.1041 z m 6.512711,0.874104 0,1.895651 c 0,1.470361 -1.033217,2.47746 -2.622126,2.47746 -1.591872,0 -2.625089,-0.989873 -2.625089,-2.47746 l 0,-1.895651 c 0,-1.487588 1.033217,-2.477461 2.625089,-2.477461 1.588909,0 2.622126,0.989873 2.622126,2.477461 z m -1.311063,0 c 0,-0.714991 -0.584588,-1.311063 -1.311063,-1.311063 -0.743886,0 -1.314026,0.596072 -1.314026,1.311063 l 0,1.895651 c 0,0.71499 0.584588,1.311062 1.314026,1.311062 0.726475,0 1.311063,-0.596072 1.311063,-1.311062 l 0,-1.895651 z m 4.314579,-2.188131 0,8.894038 c 0,0.101321 -0.04334,0.144665 -0.147629,0.144665 l -1.018769,0 c -0.101321,0 -0.147629,-0.04334 -0.147629,-0.144665 l 0,-8.894038 c 0,-0.101321 0.04631,-0.144665 0.147629,-0.144665 l 1.018769,0 c 0.104285,0 0.147629,0.04334 0.147629,0.144665 z m 6.933185,2.188131 0,1.895651 c 0,1.470361 -1.033217,2.47746 -2.622311,2.47746 -1.591687,0 -2.624904,-0.989873 -2.624904,-2.47746 l 0,-1.895651 c 0,-1.487588 1.033217,-2.477461 2.624904,-2.477461 1.589094,0 2.622311,0.989873 2.622311,2.477461 z m -1.311063,0 c 0,-0.714991 -0.584773,-1.311063 -1.311248,-1.311063 -0.743701,0 -1.313841,0.596072 -1.313841,1.311063 l 0,1.895651 c 0,0.71499 0.584588,1.311062 1.313841,1.311062 0.726475,0 1.311248,-0.596072 1.311248,-1.311062 l 0,-1.895651 z m 8.102362,-2.188131 0,6.268948 c 0,0.104285 -0.04353,0.147629 -0.144666,0.147629 l -1.021732,0 c -0.101321,0 -0.144665,-0.04334 -0.144665,-0.147629 l 0,-3.936152 c 0,-0.714805 -0.567362,-1.311063 -1.311249,-1.311063 -0.743701,0 -1.313841,0.596258 -1.313841,1.311063 l 0,3.936152 c 0,0.104285 -0.04353,0.147629 -0.144665,0.147629 l -1.021733,0 c -0.101321,0 -0.144665,-0.04334 -0.144665,-0.147629 l 0,-3.936152 c 0,-1.470176 1.065077,-2.477461 2.520805,-2.477461 0.847986,0 1.270497,0.480489 1.458692,0.480489 0.05798,0 0.101321,-0.05798 0.101321,-0.159299 l 0,-0.176525 c 0,-0.101321 0.04631,-0.144665 0.147629,-0.144665 l 0.874103,0 c 0.101136,0 0.144666,0.04334 0.144666,0.144665 z m 5.328161,5.131446 0,1.094158 c 0,0.176525 -0.202458,0.190973 -0.75815,0.190973 -0.78723,0 -1.224375,-0.78723 -1.36904,-0.78723 -0.07243,0 -0.133181,0.05779 -0.133181,0.173561 l 0,0.46604 c 0,0.104285 -0.04334,0.147629 -0.144665,0.147629 l -0.874103,0 c -0.101322,0 -0.147629,-0.04334 -0.147629,-0.147629 l 0,-6.268948 c 0,-0.101321 0.04631,-0.144665 0.147629,-0.144665 l 1.018768,0 c 0.104285,0 0.147629,0.04334 0.147629,0.144665 l 0,3.791488 c 0,0.801678 0.494937,1.296614 1.311063,1.296614 0.364719,0 0.584588,-0.101321 0.714991,-0.101321 0.05779,0 0.08669,0.05798 0.08669,0.144665 z m 3.057788,0.306928 0.437144,0 c 0.625154,0 0.888367,-0.350272 1.253086,-0.816312 0.04353,-0.04334 0.05798,-0.08669 0.101321,-0.08669 0.01445,0 0.05798,0.01445 0.08687,0.0289 l 0.845022,0.422511 c 0.06076,0.0289 0.08984,0.05798 0.08984,0.101321 0,0.584589 -0.934859,1.47314 -2.37614,1.47314 l -0.437144,0 c -1.400715,0 -2.347243,-0.874103 -2.347243,-2.141637 0,-1.094158 0.654234,-1.516669 2.040501,-1.794515 1.209742,-0.24895 1.849343,-0.32119 1.849343,-0.946344 0,-0.468819 -0.436959,-0.847986 -1.105457,-0.847986 l -0.437144,0 c -0.642565,0 -0.905778,0.364534 -1.256049,0.81909 -0.04334,0.04334 -0.07243,0.08669 -0.11577,0.08669 -0.01445,0 -0.04334,-0.01445 -0.07243,-0.0289 L 55.765429,85.35877 c -0.05798,-0.0289 -0.08984,-0.0752 -0.08984,-0.104285 0,-0.581624 0.934859,-1.470176 2.379103,-1.470176 l 0.437144,0 c 1.470177,0 2.405036,0.888552 2.405036,2.199615 0,1.137316 -0.758335,1.516483 -2.318348,1.823411 -1.065076,0.216905 -1.588909,0.364534 -1.588909,0.960791 0,0.466041 0.379168,0.743887 1.065077,0.743887 z" /><path
       inkscape:connector-curvature="0"
       id="path218"
       style="fill:#ff0000;fill-opacity:1;fill-rule:nonzero;stroke:none"
       d="m 49.356076,73.316551 0,2.167755 -0.01445,1.895837 c -0.01445,1.438316 -1.050628,2.399293 -2.659728,2.399293 -0.752592,0 -1.342922,-0.185231 -1.756913,-0.544208 -0.471782,-0.402321 -0.662755,-0.761113 -0.662755,-0.876882 0,-0.05798 0.02908,-0.08687 0.08687,-0.115769 l 0.900036,-0.460299 c 0.03186,-0.01445 0.06094,-0.02593 0.08984,-0.02593 0.08965,0 0.222832,0.228575 0.546986,0.573104 0.176525,0.188009 0.471783,0.315448 0.795936,0.315448 0.769819,0 1.299394,-0.52976 1.331254,-1.264755 l 0.01445,-0.402321 c 0,-0.09854 -0.04631,-0.141887 -0.147629,-0.141887 l -1.698751,0 c -1.166398,0 -1.965298,-0.746665 -1.965298,-1.782846 l 0,-0.08391 c 0,-1.036181 0.7989,-1.797294 1.965298,-1.797294 l 0.575882,0 c 0.680167,0 1.091194,0.489009 1.314027,0.489009 0.05779,0 0.104099,-0.05779 0.104099,-0.159113 l 0,-0.185231 c 0,-0.101321 0.04353,-0.144665 0.147629,-0.144665 l 0.885588,0 c 0.104285,0 0.147629,0.04334 0.147629,0.144665 z m -1.328474,2.312421 -0.01445,-0.271919 c -0.251729,-0.677389 -0.694616,-1.036181 -1.25605,-1.036181 l -0.575882,0 c -0.370462,0 -0.651271,0.272104 -0.651271,0.648308 l 0,0.228574 c 0,0.358978 0.280809,0.631081 0.651271,0.631081 l 1.698751,0 c 0.08687,0 0.147629,-0.05798 0.147629,-0.141886 l 0,-0.05798 z m 6.713316,2.743822 0,1.076561 c 0,0.173746 -0.208385,0.188194 -0.770004,0.188194 -0.795937,0 -1.238638,-0.775561 -1.386267,-0.775561 -0.0752,0 -0.133181,0.05779 -0.133181,0.170598 l 0,0.460298 c 0,0.101321 -0.04631,0.144665 -0.147629,0.144665 l -0.885588,0 c -0.104099,0 -0.147628,-0.04334 -0.147628,-0.144665 l 0,-6.176333 c 0,-0.101321 0.04353,-0.144665 0.147628,-0.144665 l 1.033217,0 c 0.104285,0 0.147629,0.04334 0.147629,0.144665 l 0,3.73351 c 0,0.790195 0.500679,1.279389 1.328475,1.279389 0.370461,0 0.59033,-0.101321 0.723511,-0.101321 0.05798,0 0.08984,0.05779 0.08984,0.144665 z m 6.151511,-2.040501 0,1.007284 c 0,1.305321 -1.18066,2.439859 -2.659727,2.439859 -1.476104,0 -2.656949,-1.134538 -2.656949,-2.439859 l 0,-1.869719 c 0,-1.464434 1.04785,-2.442637 2.656949,-2.442637 0.784452,0 1.403678,0.202457 1.846565,0.604778 0.442701,0.402321 0.619411,0.775747 0.619411,0.877068 0,0.04334 -0.02908,0.06946 -0.08687,0.09836 l -0.931896,0.460113 c -0.02908,0.01445 -0.05798,0.0289 -0.08687,0.0289 -0.08984,0 -0.222833,-0.228574 -0.546986,-0.601999 -0.162077,-0.18801 -0.457335,-0.318227 -0.813348,-0.318227 -0.752407,0 -1.328475,0.59033 -1.328475,1.293651 l 0,0.575883 c 0,0.101321 0.04631,0.141886 0.147629,0.141886 l 3.69313,0 c 0.104099,0 0.147443,0.04334 0.147443,0.144666 z m -1.475918,0.862619 -2.364655,0 c -0.133181,0 -0.147629,0.05779 -0.147629,0.214127 0,0.633859 0.622375,1.221411 1.328475,1.221411 0.694615,0 1.331438,-0.573104 1.331438,-1.192515 0,-0.170783 -0.01463,-0.243023 -0.147629,-0.243023 z" /><path
       inkscape:connector-curvature="0"
       id="path220"
       style="fill:#00ff00;fill-opacity:1;fill-rule:nonzero;stroke:none"
       d="m 18.128032,64.874848 0,1.609099 c 0,1.435538 -1.067855,2.48913 -2.428189,2.48913 -0.85095,0 -1.273461,-0.4979 -1.406642,-0.4979 -0.07224,0 -0.115769,0.07242 -0.115769,0.173746 l 0,2.81032 c 0,0.1041 -0.04334,0.147629 -0.147629,0.147629 l -1.024511,0 c -0.101321,0 -0.144665,-0.04353 -0.144665,-0.147629 l 0,-8.925897 c 0,-0.104099 0.04334,-0.147629 0.144665,-0.147629 l 0.879846,0 c 0.101321,0 0.144665,0.04353 0.144665,0.147629 l 0,0.173747 c 0,0.104099 0.04353,0.162077 0.104285,0.162077 0.188194,0 0.584588,-0.483453 1.447022,-0.483453 1.479067,0 2.546922,1.010063 2.546922,2.489131 z m -1.316805,0 c 0,-0.717769 -0.57014,-1.316991 -1.316805,-1.316991 -0.732217,0 -1.31699,0.599222 -1.31699,1.316991 l 0,1.609099 c 0,0.717769 0.584773,1.31699 1.31699,1.31699 0.746665,0 1.316805,-0.599221 1.316805,-1.31699 l 0,-1.609099 z m 8.043829,0.732217 0,1.024511 c 0,1.331438 -1.169362,2.486166 -2.633796,2.486166 -1.464434,0 -2.633795,-1.154728 -2.633795,-2.486166 l 0,-1.904357 c 0,-1.493515 1.039144,-2.489131 2.633795,-2.489131 0.775747,0 1.392194,0.205607 1.829154,0.616633 0.439922,0.408064 0.616447,0.790009 0.616447,0.891331 0,0.04334 -0.0289,0.0752 -0.08965,0.104285 l -0.920412,0.468818 c -0.0289,0.01445 -0.06075,0.0289 -0.08965,0.0289 -0.08687,0 -0.217091,-0.234502 -0.541244,-0.616447 -0.159299,-0.188195 -0.454371,-0.32119 -0.804643,-0.32119 -0.746665,0 -1.316805,0.599036 -1.316805,1.316805 l 0,0.584588 c 0,0.104285 0.04334,0.147629 0.147629,0.147629 l 3.658307,0 c 0.101135,0 0.144665,0.04334 0.144665,0.147629 z m -1.461656,0.876882 -2.341316,0 c -0.133181,0 -0.147629,0.05798 -0.147629,0.220054 0,0.642565 0.613484,1.244565 1.316805,1.244565 0.688873,0 1.316805,-0.587552 1.316805,-1.215669 0,-0.176525 -0.01445,-0.24895 -0.144665,-0.24895 z m 8.208128,-3.950601 0,2.208321 -0.01445,1.933438 c -0.01463,1.46147 -1.039144,2.442637 -2.633795,2.442637 -0.746665,0 -1.331438,-0.190973 -1.74228,-0.555692 -0.469004,-0.411027 -0.657013,-0.775561 -0.657013,-0.89133 0,-0.06094 0.0289,-0.08984 0.08669,-0.118733 l 0.894479,-0.468819 c 0.0289,-0.01445 0.05779,-0.02908 0.08669,-0.02908 0.08687,0 0.220054,0.234502 0.541244,0.584773 0.176525,0.190973 0.468819,0.324154 0.790194,0.324154 0.761113,0 1.287909,-0.541244 1.316805,-1.287909 l 0.01445,-0.411027 c 0,-0.101321 -0.04334,-0.144665 -0.144665,-0.144665 l -1.684488,0 c -1.154728,0 -1.944923,-0.761299 -1.944923,-1.817669 l 0,-0.08687 c 0,-1.053407 0.790195,-1.829154 1.944923,-1.829154 l 0.57014,0 c 0.674425,0 1.085452,0.497901 1.302542,0.497901 0.06076,0 0.1041,-0.05798 0.1041,-0.162077 l 0,-0.188195 c 0,-0.104099 0.04353,-0.147629 0.144665,-0.147629 l 0.879846,0 c 0.101321,0 0.14485,0.04353 0.14485,0.147629 z m -1.31699,2.35595 -0.01445,-0.277846 c -0.24895,-0.688873 -0.685909,-1.053593 -1.244565,-1.053593 l -0.57014,0 c -0.364534,0 -0.64238,0.277846 -0.64238,0.657014 l 0,0.234502 c 0,0.364719 0.277846,0.645343 0.64238,0.645343 l 1.684488,0 c 0.08687,0 0.144665,-0.06076 0.144665,-0.147628 l 0,-0.05779 z m 8.339086,-2.35595 0,6.292102 c 0,0.101321 -0.04631,0.147629 -0.147629,0.147629 l -1.024511,0 c -0.101321,0 -0.14485,-0.04631 -0.14485,-0.147629 l 0,-3.9506 c 0,-0.717769 -0.572919,-1.316991 -1.319769,-1.316991 -0.746665,0 -1.316805,0.599222 -1.316805,1.316991 l 0,3.9506 c 0,0.101321 -0.04334,0.147629 -0.144665,0.147629 l -1.024511,0 c -0.104285,0 -0.147629,-0.04631 -0.147629,-0.147629 l 0,-3.9506 c 0,-1.479068 1.067855,-2.489131 2.532474,-2.489131 0.847986,0 1.273461,0.483453 1.464434,0.483453 0.05779,0 0.101321,-0.05798 0.101321,-0.162077 l 0,-0.173747 c 0,-0.104099 0.04334,-0.147629 0.147629,-0.147629 l 0.876882,0 c 0.101321,0 0.147629,0.04353 0.147629,0.147629 z m 4.835448,-0.133181 0,0.877068 c 0,0.08965 -0.04334,0.118547 -0.11577,0.147629 -0.439923,0.190972 -0.746665,0.292294 -0.879845,0.454371 -0.219869,0.277846 -0.321191,0.541244 -0.321191,0.847986 l 0,2.928868 c 0,0.101321 0.04334,0.14485 0.147629,0.14485 l 1.024511,0 c 0.101322,0 0.144666,0.04334 0.144666,0.147629 l 0,0.876882 c 0,0.101321 -0.04334,0.147629 -0.144666,0.147629 l -1.024511,0 c -0.104285,0 -0.147629,0.04334 -0.147629,0.144665 l 0,1.024511 c 0,0.104285 -0.04334,0.147629 -0.147628,0.147629 l -0.451408,0 -0.104284,-0.04334 -1.681525,-1.785809 -0.0289,-0.512163 c 0,-0.104285 0.04334,-0.147629 0.144665,-0.147629 l 0.804643,0 c 0.104099,0 0.147628,-0.04353 0.147628,-0.14485 l 0,-2.928868 c 0,-1.464434 1.154729,-2.474497 2.355764,-2.474497 0.205607,0 0.277847,0.01723 0.277847,0.147443 z m 3.138919,8.54673 c 0,0.454371 -0.350271,0.804642 -0.804642,0.804642 -0.451593,0 -0.804642,-0.350271 -0.804642,-0.804642 0,-0.46604 0.353049,-0.804642 0.804642,-0.804642 0.454371,0 0.804642,0.353235 0.804642,0.804642 z m -0.14485,-8.413549 0,6.292102 c 0,0.101321 -0.04334,0.147629 -0.147629,0.147629 l -1.024511,0 c -0.101322,0 -0.144665,-0.04631 -0.144665,-0.147629 l 0,-6.292102 c 0,-0.104099 0.04334,-0.147629 0.144665,-0.147629 l 1.024511,0 c 0.104285,0 0.147629,0.04353 0.147629,0.147629 z m 5.556921,8.972205 c 0.01463,0.0289 0.01463,0.04334 0.01463,0.05779 0,0.159298 -0.263398,0.188194 -0.804642,0.188194 -0.761299,0 -1.406642,-0.263398 -1.872683,-0.775746 -0.497715,-0.526611 -0.761113,-1.183624 -0.761113,-1.858049 l 0,-0.657013 c 0,-0.1041 -0.04631,-0.147629 -0.147629,-0.147629 l -0.364719,0 c -0.104099,0 -0.147629,-0.04334 -0.147629,-0.144665 l 0,-0.879846 c 0,-0.101321 0.04353,-0.144665 0.147629,-0.144665 l 0.364719,0 c 0.101322,0 0.147629,-0.04631 0.147629,-0.147629 l 0,-4.462949 c 0,-0.104099 0.04334,-0.147629 0.144665,-0.147629 l 1.024697,0 c 0.104099,0 0.147443,0.04353 0.147443,0.147629 l 0,4.462949 c 0,0.101321 0.04353,0.147629 0.144851,0.147629 l 1.024511,0 c 0.104099,0 0.147629,0.04334 0.147629,0.144665 l 0,0.879846 c 0,0.101321 -0.05798,0.144665 -0.147629,0.144665 l -1.024511,0 c -0.101321,0 -0.144851,0.04353 -0.144851,0.147629 l 0,0.804642 c 0,0.717769 0.57014,1.316805 1.316991,1.316805 0.05779,0 0.176524,-0.01445 0.350086,-0.0289 0.07243,0 0.118733,0.0289 0.147629,0.101321 l 0.292294,0.85095 z m 5.653241,-8.972205 0,6.292102 c 0,0.101321 -0.04631,0.147629 -0.147629,0.147629 l -1.024511,0 c -0.101322,0 -0.144666,-0.04631 -0.144666,-0.147629 l 0,-3.9506 c 0,-0.717769 -0.573103,-1.316991 -1.319768,-1.316991 -0.74685,0 -1.316991,0.599222 -1.316991,1.316991 l 0,3.9506 c 0,0.101321 -0.04334,0.147629 -0.144665,0.147629 l -1.024511,0 c -0.104285,0 -0.147629,-0.04631 -0.147629,-0.147629 l 0,-3.9506 c 0,-1.479068 1.067855,-2.489131 2.532475,-2.489131 0.847986,0 1.273461,0.483453 1.464433,0.483453 0.05779,0 0.101322,-0.05798 0.101322,-0.162077 l 0,-0.173747 c 0,-0.104099 0.04334,-0.147629 0.147629,-0.147629 l 0.876882,0 c 0.101321,0 0.147629,0.04353 0.147629,0.147629 z m 3.226348,0 0,8.925897 c 0,0.1041 -0.04353,0.147629 -0.147629,0.147629 l -1.024511,0 c -0.101321,0 -0.144665,-0.04353 -0.144665,-0.147629 l 0,-8.925897 c 0,-0.104099 0.04334,-0.147629 0.144665,-0.147629 l 1.024511,0 c 0.1041,0 0.147629,0.04353 0.147629,0.147629 z" /></g></svg>